<svg xmlns="http://www.w3.org/2000/svg" viewBox="0 0 100 100" fill="none">
  <!-- Head shape -->
  <path d="M65 35C65 20 52 10 38 14C28 17 22 28 24 40C26 50 32 56 40 58L38 60C42 62 48 60 50 56C56 54 62 48 65 40C65 38 65 36 65 35Z" fill="#334EAC"/>
  <!-- Long beak (characteristic of Scolopacidae) -->
  <path d="M24 36C24 36 8 34 2 33C1 33 1 35 2 35.5C8 37 24 40 24 40" fill="#7096D1" stroke="#334EAC" stroke-width="1.5" stroke-linecap="round" stroke-linejoin="round"/>
  <!-- Eye -->
  <circle cx="42" cy="30" r="4" fill="white"/>
  <circle cx="43" cy="29.5" r="2" fill="#1a1a2e"/>
  <!-- Eye ring -->
  <circle cx="42" cy="30" r="5.5" stroke="#7096D1" stroke-width="1" fill="none"/>
  <!-- Head stripe (characteristic marking) -->
  <path d="M35 16C40 18 50 20 58 28" stroke="#7096D1" stroke-width="2" stroke-linecap="round" opacity="0.6"/>
  <path d="M33 20C38 22 47 25 54 32" stroke="#7096D1" stroke-width="1.5" stroke-linecap="round" opacity="0.4"/>
  <!-- Neck feather detail -->
  <path d="M50 56C54 60 56 66 54 72" stroke="#334EAC" stroke-width="2" stroke-linecap="round" opacity="0.5"/>
  <path d="M46 58C49 63 50 70 47 76" stroke="#334EAC" stroke-width="1.5" stroke-linecap="round" opacity="0.3"/>
</svg>
