<?xml version="1.0" encoding="UTF-8" standalone="no"?><!DOCTYPE svg PUBLIC "-//W3C//DTD SVG 1.1//EN" "http://www.w3.org/Graphics/SVG/1.1/DTD/svg11.dtd"><svg width="100%" height="100%" viewBox="0 0 1191 842" version="1.1" xmlns="http://www.w3.org/2000/svg" xmlns:xlink="http://www.w3.org/1999/xlink" xml:space="preserve" xmlns:serif="http://www.serif.com/" style="fill-rule:evenodd;clip-rule:evenodd;stroke-linejoin:round;stroke-miterlimit:2;"><path d="M716.349,95.911c-26.196,5.881 -44.016,22.612 -51.988,48.89c-2.901,9.253 -3.593,17.201 -3.483,35.857l0.142,24.014l-5.511,5.205c-4.593,4.276 -7.91,5.589 -18.064,6.572c-81.232,8.054 -128.963,27.178 -218.754,87.191c-45.449,30.194 -76.418,41.091 -158.352,55.43c-42.628,7.456 -50.374,9.534 -52.007,14.531c-2.355,7.772 1.348,9.228 39.066,15.101c29.583,4.628 29.944,3.148 -4.339,15.912c-17.695,6.57 -23.393,11.407 -21.141,17.304c2.628,7.004 8.911,7.521 78.366,7.111c37.13,-0.035 70.384,0.508 73.898,1.226c3.514,0.718 21.842,7.445 40.728,14.907c31.291,12.192 79.402,26.131 89.746,26.07c14.778,-0.087 14.088,8.229 -3.967,47.683c-7.842,17.041 -14.952,33.154 -15.489,35.928c-1.446,5.366 -0.881,7.21 19.34,84.305c7.184,27.851 12.681,51.464 12.132,52.39c-0.548,1.112 -11.259,1.544 -27.149,0.899c-32.148,-0.918 -39.179,-2.909 -88.078,-25.156c-19.82,-9.119 -39.451,-17.685 -43.524,-19.139c-12.034,-4.547 -33.85,-7.558 -52.692,-7.632c-22.72,0.134 -31.788,-2.583 -55.88,-15.741c-30.209,-16.631 -51.469,-19.461 -51.395,-6.9c0.032,5.357 3.37,7.554 14.463,9.151c7.949,1.061 24.248,8.354 37.783,16.771c15.76,9.882 24.824,12.045 56.975,13.518c42.313,1.782 47.866,3.781 26.285,9.081c-21.027,5.297 -51.992,17.117 -53.819,20.453c-1.096,2.038 -0.713,4.438 1.151,7.198c3.539,4.967 4.831,4.774 40.413,-7.074c23.045,-7.71 27.658,-8.661 43.359,-8.754c19.025,-0.297 16.805,-0.838 60.134,16.639c28.886,11.652 36.468,13.085 69.348,12.89c15.147,-0.09 27.897,0.574 28.457,1.494c2.237,3.497 -1.613,8.322 -12.287,15.22l-11.041,7.27l-50.983,0.301c-28.077,0.166 -52.826,0.866 -55.225,1.435c-4.794,1.506 -7.152,8.909 -3.988,12.77c2.046,2.389 20.151,2.652 138.002,1.955c123.762,-0.732 135.583,-0.986 136.675,-3.764c1.819,-4.814 -1.714,-8.672 -12.644,-13.964c-8.153,-4.201 -14.81,-5.454 -36.805,-7.541c-14.787,-1.575 -30.131,-3.516 -34.203,-4.785c-9.622,-2.714 -17.589,-6.731 -17.602,-8.948c-0.007,-1.108 60.576,-2.39 166.419,-3.2c156.269,-1.478 166.613,-1.724 168.626,-4.876c1.465,-2.225 1.454,-4.073 -0.038,-6.465c-1.865,-2.945 -9.993,-3.081 -120.828,-2.98c-75.736,0.263 -119.52,-0.402 -121.004,-1.501c-2.228,-1.834 -11.952,-21.912 -40.958,-85.101c-11.415,-24.871 -14.232,-32.612 -14.275,-39.816c-0.029,-4.987 -0.992,-11.632 -2.119,-14.766c-3.195,-9.217 5.285,-43.442 15.518,-62.344c4.384,-8.339 9.509,-16.312 11.347,-17.985c1.837,-1.673 11.601,-6.165 21.739,-9.919c59.353,-21.779 106.206,-64.358 126.598,-114.724c15.294,-37.774 17.112,-73.992 5.597,-115.671c-6.422,-23.976 -6.596,-22.128 0.959,-25.313c5.344,-2.248 8.298,-2.45 14.033,-1.007c7.586,1.987 120.76,53.965 164.112,75.322c30.198,14.784 31.493,15.146 33.867,10.514c3.471,-6.486 -6.737,-14.738 -65.889,-52.627c-31.153,-20.136 -70.465,-45.58 -87.34,-56.564l-30.968,-20.137l-6.013,-17.144c-6.39,-18.435 -9.19,-23.406 -16.993,-30.933c-7.615,-6.975 -25.766,-14.995 -39.447,-16.946c-14.422,-2.316 -14.607,-2.315 -28.997,0.91Zm39.129,25.63c8.327,2.352 11.838,2.701 15.154,1.019c3.869,-1.685 4.795,-1.321 7.404,2.542c5.218,7.728 15.917,36.482 14.081,38.34c-2.387,2.416 -30.95,-16.997 -33.201,-22.894c-1.124,-2.58 -4.101,-6.256 -6.883,-8.087c-4.265,-2.746 -5.928,-2.921 -11.089,-0.858c-4.793,1.691 -9.041,1.716 -17.363,0.287c-12.02,-2.146 -24.019,-0.782 -32.123,3.33c-7.552,3.739 -7.745,2.262 -0.768,-4.983c10.282,-10.59 18.209,-13.408 37.241,-12.412c9.238,0.315 21.625,2.089 27.546,3.716Zm-20.507,30.786c3.903,4.041 6.682,5.318 12.038,5.286c7.204,-0.043 25.367,10.01 32.803,18.094c5.392,5.879 2.842,11.99 -6.008,14.814c-9.221,2.641 -16.742,11.552 -16.696,19.31c0.02,3.325 2.104,12.179 4.551,19.923c9.594,29.315 10.692,58.68 3.293,88.28c-14.796,59.384 -69.17,111.06 -138.873,131.976c-17.886,5.463 -41.138,9.479 -41.151,7.263c-0.003,-0.554 1.64,-3.889 3.651,-7.411c3.292,-5.561 3.286,-6.67 1.058,-8.504c-1.857,-1.652 -3.704,-1.641 -6.099,-0.518c-3.498,2.053 -35.265,34.198 -39.664,40.135c-1.832,2.597 -3.861,3.163 -7.19,2.444c-4.07,-1.084 -4.633,-2.559 -6.563,-16.587c-2.699,-19.011 -5.509,-25.644 -10.676,-24.875c-2.953,0.387 -4.052,2.056 -4.39,7.415c-0.347,3.881 -1.067,7.026 -1.806,7.03c-3.14,0.019 -42.912,-9.352 -51.239,-11.889c-4.997,-1.633 -23.88,-8.541 -41.654,-15.271c-17.773,-6.73 -37.393,-13.264 -43.496,-14.521c-11.282,-2.335 -53.4,-2.455 -82.206,-0.438c-8.679,0.605 -18.47,0.479 -21.984,-0.239c-5.92,-1.443 -5.183,-1.817 15.829,-9.699l22.119,-8.074l32.159,2.766c58.772,5.01 99.977,6.798 148.558,6.511c42.116,-0.249 50.796,-0.67 69.8,-4.477c49.449,-9.713 91.598,-35.639 107.486,-66.583c7.486,-14.822 8.909,-24.067 4.788,-33.833c-3.751,-9.584 -11.543,-15.264 -22.265,-16.494c-9.426,-0.868 -10.179,-3.265 -3.393,-11.433c6.42,-7.612 12.682,-10.789 24.866,-12.154c15.875,-1.941 25.272,-6.061 28.557,-12.73c4.202,-7.968 2.266,-22.919 -4.667,-39.504c-11.614,-27.271 -12.254,-41.676 -2.162,-53.188c6.604,-7.798 14.162,-10.428 26.361,-9.207c7.208,0.696 10.357,2.155 14.262,6.381Zm109.821,47.195c18.357,11.714 39.865,25.257 47.837,30.012c13.349,8.234 21.516,14.836 13.18,10.821c-2.037,-0.912 -27.417,-13.138 -56.687,-27.189c-48.348,-22.805 -53.353,-25.731 -53.377,-29.795c-0.014,-2.401 1.257,-6.103 3.093,-7.961c2.752,-3.157 3.306,-3.16 7.757,-0.231c2.596,1.647 19.84,12.629 38.197,24.343Zm-225.476,43.82c10.344,-0.061 8.33,2.906 -2.929,4.451c-16.614,1.945 -54.605,12.515 -76.352,21.141c-11.426,4.501 -44.767,20.584 -74.049,35.72c-29.282,15.136 -53.78,27.103 -54.337,26.552c-1.301,-1.285 55.375,-38.566 79.493,-52.193c41.978,-23.524 90.47,-38.958 114.685,-36.33c3.512,0.349 9.61,0.682 13.489,0.659Zm-118.219,94.724c0.039,6.65 -36.935,32.915 -59.601,42.285c-13.821,5.623 -17.696,6.385 -30.997,6.279c-8.498,-0.134 -20.324,-0.619 -26.424,-1.322l-11.091,-1.228l13.84,-2.483c38.382,-6.877 81.141,-23.386 105.055,-40.337c6.99,-5.029 9.202,-5.781 9.217,-3.195Zm71.61,145.51c1.329,6.088 -1.548,19.405 -10.246,47.905c-3.626,11.659 -6.51,23.683 -6.492,26.824c0.02,3.325 2.653,11.253 5.832,17.884c6.358,13.078 35.364,76.267 45.473,98.929c3.557,7.922 5.999,14.927 5.634,15.668c-0.55,0.742 -13.476,1.557 -28.623,1.647c-27.338,0.162 -27.708,0.164 -29.212,-4.261c-0.938,-2.396 -7.167,-24.896 -13.597,-50.165c-8.13,-31.54 -11.743,-49.068 -11.6,-56.088c0.152,-5.543 0.272,-16.442 0.227,-24.016c-0.07,-11.822 1.011,-16.447 7.382,-32.371c4.188,-10.185 8.743,-20.926 10.203,-23.89c3.653,-7.041 18.704,-23.386 21.659,-23.403c1.293,-0.008 2.785,2.385 3.357,5.337Zm-39.059,17.41c-0.909,2.407 -4.918,11.852 -8.927,21.112c-8.748,20.187 -10.366,27.585 -7.553,34.773c1.315,3.687 1.341,8.12 -0.092,15.702c-1.796,8.693 -1.587,12.755 1.072,25.116c5.881,26.196 27.601,106.793 30.783,113.794c3.371,7.739 7.268,10.856 20.415,16.135l8.887,3.457l-26.6,0.157l-26.599,0.342l3.669,-4.27c6.791,-7.429 8.059,-11.685 6.161,-20.172c-2.65,-10.883 -29.695,-117.31 -34.226,-133.724c-4.154,-15.308 -3.795,-16.972 6.975,-38.834c4.198,-8.522 7.481,-15.746 7.478,-16.115c-0.002,-0.369 2.185,-5.37 4.737,-11.112c4.01,-9.075 5.296,-10.376 9.914,-10.403c4.803,-0.028 5.359,0.338 3.903,4.041Zm58.219,5.198c-0.725,2.406 -3.069,12.025 -5.045,21.458c-3.422,14.798 -3.587,18.124 -1.698,25.317c1.32,4.61 2.287,11.809 2.311,15.873c0.046,7.758 8.851,28.58 38.972,92.871c7.294,15.104 12.728,28.188 12.178,28.93c-1.645,2.965 -7.935,1.34 -10.545,-2.709c-1.491,-2.208 -11.592,-23.576 -22.262,-47.343c-10.855,-23.765 -23.205,-50.662 -27.508,-59.689c-4.118,-9.212 -8.239,-18.793 -8.808,-21.376c-0.572,-2.952 1.402,-12.754 4.48,-23.302c3.081,-9.993 6.521,-21.836 7.603,-26.276c1.623,-6.66 2.725,-7.775 6.789,-7.799c4.064,-0.024 4.437,0.528 3.534,4.043Z" style="fill-rule:nonzero;fill:white;"/></svg>