<?xml version="1.0" encoding="UTF-8" standalone="no"?><!DOCTYPE svg PUBLIC "-//W3C//DTD SVG 1.1//EN" "http://www.w3.org/Graphics/SVG/1.1/DTD/svg11.dtd"><svg width="100%" height="100%" viewBox="0 0 2816 1536" version="1.1" xmlns="http://www.w3.org/2000/svg" xmlns:xlink="http://www.w3.org/1999/xlink" xml:space="preserve" xmlns:serif="http://www.serif.com/" style="fill-rule:evenodd;clip-rule:evenodd;stroke-linejoin:round;stroke-miterlimit:2;"><g id="Background"><path d="M1695.103,426.926c256.431,-99.526 303.233,-168.367 352.071,-217.17c17.473,-17.461 -29.649,68.249 -77.629,115.317c-178.572,175.181 -369.46,142.981 -501.216,304.282c-26.583,32.544 -78.957,114.18 -209.752,80.804c-26.024,-6.641 64.149,8.095 119.174,-55.538c19.397,-22.431 30.121,-42.069 44.443,-65.41c33.106,-52.964 38.478,-51.964 49.612,-63.527c55.561,-49.429 134.348,-65.714 223.296,-98.758Z" style="fill:#053f70;"/><path d="M1054.03,702.247c0.228,0.437 4.829,0.343 3.071,5.878c-0.727,2.287 -0.036,11.276 -2.72,12.538c-10.316,4.851 -10.279,4.807 -16.431,14.728c-1.49,2.402 -16.83,-2.571 -13.833,8.552c3.37,12.508 8.359,5.729 25.008,6.598l2.75,-0.178l2.75,-0.27l2.75,-0.396l2.75,-0.164l2.75,-0.049l2.75,-0.38l2.75,0.154l2.75,0.236l2.75,0.041l2.75,0.03c17.006,2.417 22.725,0.057 29.995,-7.554c3.956,1.117 28.575,8.068 49.612,13.363c33.418,8.411 49.963,-11.963 57.023,0.026c105.358,178.935 328.147,156.841 399.794,154.522c19.404,-0.628 -26.948,-39.438 -22.348,-42.855c4.454,-3.309 162.403,97.794 170.051,103.226c30.758,21.842 32.304,18.371 69.413,23.485l2.71,4.375l3.545,1.475l0.702,2.75c-0.44,1.224 1.693,2.472 1.252,3.695c-0.535,1.485 -30.357,1.6 -33,1.61l-2.75,-0.134l-3.09,3.86c-68.913,-28.02 -130.925,-66.557 -164.892,-79.803c-1.711,-0.667 -70.701,6.167 -76.843,6.776c-358.784,35.545 -324.032,-174.317 -489.446,-182.922c-35.848,-1.865 -295.165,122.295 -299.527,119.87c-6.23,-3.462 16.177,-15.423 43.212,-30.74c178.331,-101.032 222.539,-114.054 241.99,-142.341Z" style="fill:#063e6f;"/><path d="M1013.376,1254.109c-58.498,-0.012 -58.364,0.132 -63.423,-0.253c-10.856,-0.826 -6.4,-7.188 -5.363,-135.982c0.052,-6.398 2.834,-8.239 79.788,-5.584c90.47,3.121 118.25,135.819 -11.003,141.819Z" style="fill:#042a4f;"/><path d="M1252.839,1254.284c-5.485,-1.747 -11.15,-2.892 -16.635,-4.639c-63.953,-20.365 -65.133,-123.028 16.294,-138.079c131.319,-24.273 146.071,163.288 0.341,142.718Z" style="fill:#042a4e;"/><path d="M1967.616,1254.112c-28.78,-1.937 -15.125,-35.161 -35.723,-35.227c-63.603,-0.202 -70.955,-3.715 -78.554,12.276c-3.748,7.887 0.269,23.134 -31.461,23.282c-37.895,0.176 -33.368,-12.909 -77.213,-59.329c-6.415,-6.792 -30.616,21.862 -30.703,27.21c-0.427,26.326 4.326,31.019 -4.635,31.516c-24.163,1.342 -17.843,-9.881 -17.846,-34.212c-0.004,-49.579 -0.633,-49.132 -0.251,-99.014c0.1,-13.059 22.684,-13.528 22.804,0.002c0.344,38.882 -3.294,75.48 5.643,65.545c5.731,-6.37 64.93,-72.175 77.42,-74.013c1.528,-0.225 27.766,-4.087 18.58,5.221c-3.599,3.647 -3.968,3.126 -45.879,44.684c-5.205,5.161 -16.31,11.726 -7.823,21.299c58.079,65.509 58.461,65.852 58.774,65.502c8.814,-9.843 60.895,-136.131 69.816,-136.788c28.937,-2.131 24.232,9.221 37.113,35.432c49.383,100.489 56.141,104.533 48.719,105.972c-2.882,0.559 -5.901,0.083 -8.783,0.642Z" style="fill:#06294c;"/><path d="M1461.627,1253.857c-60.235,0.036 -74.319,2.642 -74.323,-6.73c-0.047,-131.914 0.078,-134.594 5.546,-135.074c148.47,-13.034 118.189,49.51 111.989,57.444c-6.343,8.118 -16.134,8.882 -7.044,13.614c21.349,11.112 51.099,66.888 -36.169,70.747Z" style="fill:#05284c;"/><path d="M1675.915,550.884c276.276,-128.5 304.185,-169.638 343.906,-192.133c14.249,-8.07 -14.251,64.472 -82.23,113.217c-71.142,51.013 -170.211,76.033 -211.594,86.192l-3.123,-3.657l-2.75,-0.55l-2.75,-0.433l-2.75,-0.523l-2.329,-1.621l-0.421,1.673l-2.75,1.888l-2.75,1.98l-2.75,0.271c-17.619,1.418 -17.724,1.269 -25.038,-3.063l-2.671,-3.241Z" style="fill:#053d6c;"/><path d="M1389.257,765.901c2.195,-5.049 92.269,-6.042 143.529,9.408c142.925,43.078 240.26,151.511 279.029,179.894c17.452,12.777 -24.973,-5.904 -69.882,-17.985c-41.342,-11.122 -34.869,-22.084 -93.683,-66.345c-48.43,-36.447 -49.192,-34.889 -104.084,-61.103l2.708,-3.307c11.839,-7.825 -3.396,-8.777 -7.942,-6.81c-2.459,1.064 -3.596,4.223 -6.055,5.287c-79.319,-33.017 -129.156,-35.247 -142.539,-36.711l-1.082,-2.327Z" style="fill:#073e6f;"/><path d="M808.295,1194.833c6.165,49.957 64.748,35.244 66.415,2.691c1.896,-37.035 -4.413,-85.417 6.633,-85.586c2.398,-0.037 28.719,-0.441 29.792,3.349c0.215,0.759 1.841,81.701 -1.51,93.559c-20.141,71.278 -136.492,64.326 -138.374,-16.718c-1.793,-77.196 -0.858,-80.103 5.575,-80.237c2.489,-0.052 29.762,-0.619 30.975,2.955c2.056,6.06 0.269,5.879 0.495,79.988Z" style="fill:#032a4f;"/><path d="M567.712,1254.468c-6.592,0.51 -62.854,4.866 -81.494,-13.722c-1.983,-1.977 1.045,-32.889 18.149,-23.469c46.248,25.473 94.484,-0.661 58.436,-15.174c-10.124,-4.076 -96.438,-10.68 -73.407,-64.404c17.23,-40.193 123.538,-32.462 113.074,-6.572c-4.908,12.144 -3.251,19.329 -15.254,14.054c-45.148,-19.841 -90.572,6.605 -47.144,20.433c6.334,2.017 87.751,8.046 70.845,59.123c-6.376,19.263 -39.169,28.583 -43.205,29.73Z" style="fill:#052a4e;"/><path d="M1054.03,702.247c10.919,-19.385 23.806,-44.704 48.15,-61.573c76.624,-53.097 125.794,33.258 221.957,28.902c12.688,-0.575 -15.162,25.468 -88.109,3.112c-98.591,-30.215 -112.215,-18.009 -149.56,32.089c-18.844,25.279 22.524,-6.856 24.831,-8.892c44.391,-39.166 46.01,-5.013 45.237,-1.475c-2.942,13.47 -42.484,16.266 -76.629,36.341c-1.999,1.175 -1.116,4.333 26.714,11.257c-7.27,7.612 -12.99,9.971 -29.995,7.554l-2.75,-0.03l-2.75,-0.041l-2.75,-0.236l-2.75,-0.154l-2.75,0.38l-2.75,0.049l-2.75,0.164l-2.75,0.396l-2.75,0.27l-2.75,0.178c-16.649,-0.869 -21.638,5.91 -25.008,-6.598c-2.997,-11.122 12.344,-6.15 13.833,-8.552c6.152,-9.921 6.115,-9.877 16.431,-14.728c2.684,-1.262 1.993,-10.251 2.72,-12.538c1.758,-5.535 -2.843,-5.441 -3.071,-5.878Z" style="fill:#073c6b;"/><path d="M2322.342,1254.12c-12.064,-1.816 -11.737,-3.605 -67.318,-69.171c-20.299,-23.946 -31.335,-38.144 -31.217,-28.496c0.585,47.75 2.559,96.594 -2.825,97.151c-24.465,2.531 -18.631,-9.313 -18.673,-33.978c-0.176,-104.72 -0.739,-107.428 4.495,-107.67c19.477,-0.902 17.855,5.782 92.408,92.121c8.263,9.569 8.352,13.406 11.516,9.677c2.291,-2.701 -3.817,-99.332 3.342,-101.535c25.884,-7.966 18.779,8.808 18.729,35.906c-0.065,35.089 0.175,98.654 0.079,101.67c-0.219,6.929 -3.466,3.515 -10.538,4.326Z" style="fill:#062a4d;"/><path d="M1772.735,626.918c-34.592,8.652 -34.136,8.513 -68.857,16.373l-3.003,-3.391l-2.75,0.223l-2.75,0.102c-16.187,-2.15 -15.698,-4.7 -19.668,-10.358c267.712,-98.423 295.37,-139.818 278.182,-114.235c-49.94,74.33 -145.194,100.009 -181.154,111.287Z" style="fill:#053b6a;"/><path d="M694.381,1254.12c-7.43,-0.513 -14.907,0.016 -22.337,-0.498c-4.861,-0.336 -3.29,-20.905 -3.407,-105.475c-0.021,-15.149 -8.553,-6.723 -43.091,-7.408c-8.771,-0.174 -6.785,-24.783 -4.3,-27.195c5.78,-5.61 117.922,-1.72 128.169,-1.364c4.504,0.156 4.068,20.459 4.029,22.269c-0.215,10.005 -35.96,6.301 -42.488,6.383c-7.227,0.09 -4.996,15.869 -4.997,81.546c-0,20.647 9.112,30.335 -11.578,31.742Z" style="fill:#032a4f;"/><path d="M1557.871,1254.099c-2.494,-0.361 -8.077,1.492 -8.105,-6.973c-0.403,-121.427 -2.791,-121.754 0.515,-131.764c1.747,-5.29 104.099,-5.644 105.646,0.075c6.078,22.48 -8.549,14.273 -32.043,14.313c-20.749,0.036 -51.467,-1.993 -51.585,4.708c-0.053,2.978 -0.636,36.04 2.608,37.145c5.271,1.795 70.904,-2.549 71.937,3.604c3.699,22.029 -8.638,15.14 -31.215,15.208c-2.632,0.008 -43.301,-2.641 -43.409,4.536c-0.004,0.251 -2.54,40.816 4.932,40.978c69.245,1.505 86.405,-12.483 83.317,14.174c-0.409,3.528 -2.206,3.79 -102.597,3.996Z" style="fill:#05284e;"/><path d="M1675.68,702.144c50.418,-43.259 71.709,-36.306 157.314,-62.196c49.007,-14.822 -60.339,43.21 -68.1,47.454c-131.665,71.994 -90.366,133.055 -99.873,132.814c-2.096,-0.053 -38.863,-58.568 1.572,-107.572c6.651,8.959 8.483,8.469 9.451,8.211c12.288,-3.282 0.586,-17.552 -0.363,-18.71Z" style="fill:#073d6c;"/><path d="M2052.821,1237.63c2.932,-0.56 31.008,-5.919 30.993,-20.765c-0.02,-20.428 -49.489,-27.02 -50.269,-27.234c-74.18,-20.346 -46.389,-91.309 38.648,-77.623c39.178,6.305 23.831,29.256 16.118,26.023c-5.315,-2.227 -58.619,-24.568 -71.909,4.21c-12.219,26.46 42.693,33.115 53.111,35.643c65.517,15.9 40.432,101.758 -58.041,72.441c-34.486,-10.267 -16.03,-29.414 -11.242,-27.025c24.779,12.365 24.665,12.908 52.589,14.328Z" style="fill:#06274c;"/><path d="M1320.141,1181.172c-3.895,72.496 -110.935,52.547 -91.282,-13.537c10.751,-36.151 78.054,-41.421 90.264,5.128c0.716,2.731 0.302,5.678 1.018,8.409Z" style="fill:#fcfcfb;"/><path d="M981.861,1216.923c-0.219,-41.165 -2.457,-75.167 4.138,-76.141c95.192,-14.068 101.117,84.636 24.629,84.869c-18.641,0.057 -27.479,9.699 -28.767,-8.728Z" style="fill:#fbfcfb;"/><path d="M1137.133,1254.091c-17.432,-1.655 -11.058,-8.901 -11.082,-26.217c-0.012,-8.801 -0.149,-109.062 -0.138,-110.014c0.096,-8.33 31.926,-7.776 34.929,-4.5c5.454,5.95 1.6,125.642 1.248,136.562c-0.232,7.192 -4.138,3.478 -24.957,4.17Z" style="fill:#032a4e;"/><path d="M1495.492,1214.135c-3.406,21.541 -17.678,23.303 -80.6,21.829c-5.173,-0.121 -5.257,-4.761 -5.267,-5.362c-0.057,-3.137 -0.684,-37.846 2.017,-39.163c0.932,-0.454 59.615,-5.141 74.17,4.259c7.817,5.048 9.451,16.787 9.681,18.437Z" style="fill:#fbfdfb;"/><path d="M2146.363,1254.102c-1.242,-0.242 -9.31,2.321 -9.342,-6.954c-0.42,-121.984 -3.134,-122.374 0.439,-132.34c1.717,-4.789 21.318,-4.916 21.53,3.14c0.284,10.784 3.42,130.08 -1.49,134.834c-0.645,0.624 -0.812,0.096 -11.137,1.319Z" style="fill:#072b50;"/><path d="M1487.63,1150.774c-2.196,35.25 -77.243,19.33 -77.421,18.958c-1.34,-2.797 -2.473,-38.181 2.308,-39.621c0.692,-0.208 45.825,-1.704 57.439,1.223c17.703,4.462 16.935,16.244 17.674,19.44Z" style="fill:#fcfcfb;"/><path d="M1900.538,1135.384c17.892,46.065 38.614,66.272 20.343,66.082c-18.071,-0.188 -55.992,3.265 -51.289,-6.145c25.264,-50.55 24.511,-60.003 30.947,-59.937Z" style="fill:#fafbfa;"/><path d="M1830.165,993.775c10.987,1.994 17.296,-2.558 15.839,8.762c0.241,0.824 0.482,1.647 0.723,2.471c18.525,8.193 28.477,15.406 66.026,24.584c12.558,3.069 6.309,7.906 5.307,7.721c-59.733,-11.009 -60.264,-7.802 -118.524,-25.906l3.09,-3.86l2.75,0.134c2.643,-0.01 32.465,-0.125 33,-1.61c0.44,-1.224 -1.693,-2.472 -1.252,-3.695l-0.702,-2.75l-3.545,-1.475l-2.71,-4.375Z" style="fill:#0d3e6e;"/><path d="M1675.707,629.866c3.97,5.658 3.481,8.208 19.668,10.358l2.75,-0.102l2.75,-0.223l3.003,3.391c-9.113,1.676 -141.901,26.09 -115,13.8c6.622,-3.025 7.186,-1.121 86.829,-27.225Z" style="fill:#0d355a;"/><path d="M1675.915,550.884l2.671,3.241c7.315,4.332 7.419,4.481 25.038,3.063l2.75,-0.271l2.75,-1.98l2.75,-1.888l0.421,-1.673l2.329,1.621l2.75,0.523l2.75,0.433l2.75,0.55l3.123,3.657c-50.638,10.914 -160.422,36.594 -96.583,12.55c23.68,-8.918 23.085,-9.335 46.5,-19.826Z" style="fill:#0f375a;"/><path d="M1675.68,702.144c0.949,1.158 12.651,15.428 0.363,18.71c-0.968,0.258 -2.8,0.748 -9.451,-8.211c3.029,-3.5 6.058,-6.999 9.088,-10.499Z" style="fill:#072e53;"/><path d="M1532.878,804.94c2.459,-1.064 3.596,-4.223 6.055,-5.287c4.547,-1.967 19.782,-1.015 7.942,6.81l-2.708,3.307l-11.289,-4.83Z" style="fill:#09335d;"/><path d="M1491.588,520.713c4.149,-1.402 5.78,-6.664 5.787,-1.956c0.001,0.489 0,0 -5.787,1.956Z" style="fill:#033c6b;"/></g></svg>